<svg id="eBJfGNZV8Mi1" xmlns="http://www.w3.org/2000/svg" xmlns:xlink="http://www.w3.org/1999/xlink" viewBox="0 0 200 200" shape-rendering="geometricPrecision" text-rendering="geometricPrecision" project-id="8c331fe8c1504b1c9f5f8b854246038e" export-id="0a3fc253cc9d437197ca954341b4be06" cached="false"><path d="M0,0C5.28,0,10.56,0,16,0c.12375,2.072813.12375,2.072813.25,4.1875C16.736619,8.546513,17.731811,10.918565,21,14c3.269343,2.28854,6.069815,2.471622,10,2c3.657822-2.039939,5.669462-3.504193,8-7c.453946-2.279129.453946-2.279129.625-4.6875C39.74875,2.889375,39.8725,1.46625,40,0c5.28,0,10.56,0,16,0c0,6.93,0,13.86,0,21c1.32-.33,2.64-.66,4-1c3.83309-.34224,6.121677-.540506,9.4375,1.5C71.640654,25.025046,71.918198,27.954965,71,32c-1.875,2.5625-1.875,2.5625-5,4-3.41062.015621-6.642848-.44557-10-1c.005237.600623.010474,1.201245.015869,1.820068.020711,2.7058.033772,5.411584.046631,8.117432.008379.945527.016758,1.891055.025391,2.865234.003222.899121.006445,1.798243.009765,2.72461.005237.832654.010474,1.665307.015869,2.523193C56,55,56,55,55,56c-1.718654.093592-3.441157.117446-5.162354.113525-1.116529-.00012-2.233059-.000241-3.383422-.000366-1.182433-.005116-2.364866-.010232-3.58313-.015503-1.080194-.001007-2.160388-.002014-3.273316-.003052-4.053437-.00525-8.106858-.019211-12.160278-.032104C18.383125,56.041875,9.32875,56.02125,0,56C0,37.52,0,19.04,0,0Z" transform="matrix(1.6 0 0 1.6 12.011523 107.568902)" fill="#e1c428"/><path d="M0,0c.974848.002221,1.949697.004441,2.954086.006729c1.11653.000121,2.233059.000242,3.383423.000366c1.773649.007674,1.773649.007674,3.58313.015503c1.620291.001511,1.620291.001511,3.273315.003052c4.053437.005251,8.106859.019212,12.160279.032105c9.054375.020625,18.10875.04125,27.4375.0625c0,18.48,0,36.96,0,56-5.28,0-10.56,0-16,0-.061875-1.546875-.12375-3.09375-.1875-4.6875-.389309-3.664698-.748089-5.213871-2.8125-8.375-3.963152-2.559536-7.292769-3.376732-12-2.9375-3.846764,1.958352-5.609662,3.414492-8,7-.453946,2.279129-.453946,2.279129-.625,4.6875-.12375,1.423125-.2475,2.84625-.375,4.3125-5.28,0-10.56,0-16,0c0-6.93,0-13.86,0-21-1.485.495-1.485.495-3,1-7.065421.560747-7.065421.560747-10.5-1.5-2.122018-3.536697-2.411907-6.48268-1.5-10.5c1.875-2.5625,1.875-2.5625,5-4c3.41062-.015622,6.642848.445569,10,1-.005237-.600623-.010474-1.201246-.015869-1.820069-.020711-2.7058-.033772-5.411583-.046631-8.117431-.008379-.945528-.016758-1.891055-.025391-2.865235-.003222-.899121-.006445-1.798242-.009765-2.724609-.005237-.832654-.010474-1.665308-.01587-2.523194C-3.158044,0.257826,-2.811692,0.153115,0,0Z" transform="matrix(1.6 0 0 1.6 111.128485 13.015798)" fill="#e1c427"/><path d="M0,0c4.23804.971218,5.623441,2.014636,8,5.6875.118274,3.827761-.402391,7.184497-1,11c6.93,0,13.86,0,21,0c0,18.48,0,36.96,0,56-18.15,0-36.3,0-55,0c0-5.28,0-10.56,0-16c1.5675-.2475,3.135-.495,4.75-.75c4.225025-.836639,6.646002-1.627047,9.25-5.25c1.728698-3.457396,1.489669-7.219756,1-11-1.793937-2.870299-2.982633-4.491316-6-6-2.330773-.307919-4.662419-.508953-7.003906-.71875C-27,32.6875,-27,32.6875,-28,31.6875c-.073202-2.532776-.092276-5.031039-.0625-7.5625.020625-2.454375.04125-4.90875.0625-7.4375c10.395-.495,10.395-.495,21-1-.33-2.97-.66-5.94-1-9C-5.730263,2.767046,-4.4627,1.022702,0,0Z" transform="matrix(1.6 0 0 1.6 149.26073 80.91)" fill="#34a570"/><path d="M0,0C18.15,0,36.3,0,55,0c0,4.95,0,9.9,0,15-1.5675.2475-3.135.495-4.75.75-4.225025.836639-6.646002,1.627047-9.25,5.25-1.7525,3.505001-1.539034,7.175429-1,11c1.913546,3.685697,1.913546,3.685697,5,6c3.424855.784318,6.454065.905442,10,1c0,5.28,0,10.56,0,16-9.9.495-9.9.495-20,1c.154688,2.59875.154688,2.59875.3125,5.25-.006903,5.363509-.006903,5.363509-2.4375,8.4375C29.523528,71.21752,27.63747,71.619144,24,71c-2.375-1.3125-2.375-1.3125-4-4-.333102-3.733964-.179212-7.236541,0-11-6.6-.33-13.2-.66-20-1C0,36.85,0,18.7,0,0Z" transform="matrix(1.6 0 0 1.6 12.011523 15.015798)" fill="#32a36e"/><path d="M0,0C3.855448,1.996571,5.598051,3.397076,8,7c.64796,4.34474.978935,8.945045-.945312,12.984375C4.545314,23.172384,1.949673,25.173324,-2,26c-4.30964.061441-7.233151-.499881-10.875-2.875-3.315373-3.315373-4.416465-5.386404-4.4375-10C-17.22094,8.931541,-16.791143,6.289561,-14,3c4.3587-3.868111,8.395931-3.813209,14-3Z" transform="matrix(1.6 0 0 1.6 154.1 24.253272)" fill="#fbf8e7"/><path d="M0,0c1.9375.8125,1.9375.8125,4,2c.33.99.66,1.98,1,3c.969375-.020625,1.93875-.04125,2.9375-.0625C11,5,11,5,12,6c.045029,1.666058.038749,3.333784,0,5-.188111,3.729591-.188111,3.729591.625,6.125.12375.61875.2475,1.2375.375,1.875-2,2-2,2-5.125,2.125C6.451875,21.063125,6.451875,21.063125,5,21c-.99,2.475-.99,2.475-2,5-1.65-.33-3.3-.66-5-1-.33-1.32-.66-2.64-1-4-1.98,0-3.96,0-6,0-.857775-3.431102-.966915-5.615799,0-9-.33-.33-.66-.66-1-1-.040638-1.666171-.042721-3.333881,0-5c4.75-1.125,4.75-1.125,7,0c.309375-.804375.61875-1.60875.9375-2.4375C-1,1,-1,1,0,0Z" transform="matrix(1.6 0 0 1.6 150 127.06)" fill="#bee2d1"/><path d="M0,0c.897188.99.897188.99,1.8125,2C3.875018,4.337385,3.875018,4.337385,7,4C7,2.68,7,1.36,7,0c.66,0,1.32,0,2,0c2.396627,4.194097,3.70668,7.154191,3,12-2.139517,3.896978-4.236035,6.642426-8,9-4.03462.798935-8.196037.927753-11.914062-.984375C-10.702748,17.790172,-12.961179,15.428108,-14,12c-.497298-4.674601.300504-7.175713,3-11c.66.33,1.32.66,2,1c0,.99,0,1.98,0,3c.99.33,1.98.66,3,1-.99.33-1.98.66-3,1-1.218699,2.504475-1.218699,2.504475-2,5c1.838839,2.287287,1.838839,2.287287,4.625,2.125.78375-.04125,1.5675-.0825,2.375-.125.54373-3.058478,1-5.887728,1-9c.66-.33,1.32-.66,2-1c.652133-2.024633.652133-2.024633,1-4Z" transform="matrix(1.6 0 0 1.6 61.0001 142.06)" fill="#f9f2d2"/><path d="M0,0C2.8125,1.1875,2.8125,1.1875,5,3c.8125,2.6875.8125,2.6875,1,5-1.8125.625-1.8125.625-4,1-.99-.66-1.98-1.32-3-2-1.98.99-1.98.99-4,2c.20625,1.093125.4125,2.18625.625,3.3125C-4,16,-4,16,-6,19c-3.125.6875-3.125.6875-6,1-1.0625-1.8125-1.0625-1.8125-2-4c1-3,1-3,2.125-4.875c1.122998-2.727282.650485-4.333255-.125-7.125c4.144055-3.157376,6.743714-4.782851,12-4Z" transform="matrix(1.6 0 0 1.6 63.0001 138.06)" fill="#e5c733"/><path d="M0,0c1.65.33,3.3.66,5,1c0,.66,0,1.32,0,2c.969375-.020625,1.93875-.04125,2.9375-.0625C11,3,11,3,12,4c.045029,1.666058.038749,3.333784,0,5-.166027,3.730782-.166027,3.730782.5625,6.1875.144375.598125.28875,1.19625.4375,1.8125-1,1-1,1-4.0625,1.0625C7.968125,18.041875,6.99875,18.02125,6,18c.185625-.804375.37125-1.60875.5625-2.4375C6.706875,14.716875,6.85125,13.87125,7,13c-.33-.33-.66-.66-1-1-.37125.515625-.7425,1.03125-1.125,1.5625C3,15,3,15,-0.1875,14.6875C-1.115625,14.460625,-2.04375,14.23375,-3,14c-.125-2.375-.125-2.375,0-5c.66-.66,1.32-1.32,2-2C0.32,7,1.64,7,3,7c0-.66,0-1.32,0-2-1.65-.33-3.3-.66-5-1c.66-1.32,1.32-2.64,2-4Z" transform="matrix(1.6 0 0 1.6 150 129.06)" fill="#b2dcc9"/><path d="M0,0c-.356531,5.298453-3.238443,7.929711-6.75,11.5625-.525937.563965-1.051875,1.12793-1.59375,1.708984-2.396467,2.535866-4.759432,4.810948-7.492187,6.994141-2.298806,1.550784-2.298806,1.550784-3.039063,3.921875-.37125.598125-.7425,1.19625-1.125,1.8125-3.625.75-3.625.75-7,1c.343994-2.884635.604256-4.570473,2.601563-6.738281c1.001601-.779239,1.001601-.779239,2.023437-1.574219c2.920593-2.391463,5.408822-4.777192,7.8125-7.6875C-5.238281,0,-5.238281,0,0,0Z" transform="matrix(1.6 0 0 1.6 69.0001 38.0602)" fill="#87c9aa"/><path d="M0,0c.598125.66,1.19625,1.32,1.8125,2C3.875018,4.337385,3.875018,4.337385,7,4C7,2.68,7,1.36,7,0c.66,0,1.32,0,2,0c2.396627,4.194097,3.70668,7.154191,3,12-2.131628,3.882608-4.216353,6.689273-8,9-2.578125.292969-2.578125.292969-5.25.1875-.892031-.02707-1.784062-.054141-2.703125-.082031C-4.628594,21.070664,-5.304062,21.035859,-6,21c0-.33,0-.66,0-1c3.63-.33,7.26-.66,11-1c.33-1.65.66-3.3,1-5c.99-.33,1.98-.66,3-1c0-2.31,0-4.62,0-7C7.68,6,6.36,6,5,6c0,1.98,0,3.96,0,6-1.144687-.061875-1.144687-.061875-2.3125-.125C-0.227184,11.779192,-0.227184,11.779192,-3,14c0-2.97,0-5.94,0-9c.66-.33,1.32-.66,2-1c.652133-2.024633.652133-2.024633,1-4Z" transform="matrix(1.6 0 0 1.6 61.0001 142.06)" fill="#fcf9ea"/><path d="M0,0C3.63,0,7.26,0,11,0c.33,1.65.66,3.3,1,5-2.783635,4.175452-4.99608,6.74902-10,8-2.8125.125-2.8125.125-5,0c.99-.66,1.98-1.32,3-2c.364605-2.666539.364605-2.666539.1875-5.625C0.125625,3.60125,0.06375,1.8275,0,0Z" transform="matrix(1.6 0 0 1.6 150.404665 37.253272)" fill="#f7f0c9"/><path d="M0,0c.66.33,1.32.66,2,1C2,3.31,2,5.62,2,8c-.928125.12375-.928125.12375-1.875.25-2.309376.562585-2.309376.562585-3.375,2.8125-.2475.639375-.495,1.27875-.75,1.9375-2.31,0-4.62,0-7,0c.75-4.75.75-4.75,3-7c1.32,0,2.64,0,4,0c.33-1.65.66-3.3,1-5c.99-.33,1.98-.66,3-1Z" transform="matrix(1.6 0 0 1.6 69.0001 147.06)" fill="#e4c630"/><path d="M0,0c.99.33,1.98.66,3,1-1.32,1.32-2.64,2.64-4,4c1.32.66,2.64,1.32,4,2c0,.66,0,1.32,0,2-1.65.66-3.3,1.32-5,2c0,1.98,0,3.96,0,6-.66.33-1.32.66-2,1-.66-.99-1.32-1.98-2-3-.99.33-1.98.66-3,1-.33-3.3-.66-6.6-1-10c4.75-1.125,4.75-1.125,7,0c.309375-.804375.61875-1.60875.9375-2.4375C-1,1,-1,1,0,0Z" transform="matrix(1.6 0 0 1.6 150 127.06)" fill="#c2e3d4"/><path d="M0,0C3.63,0,7.26,0,11,0c0,3.63,0,7.26,0,11-1.32-.99-2.64-1.98-4-3-.33.66-.66,1.32-1,2C2.083144,6.484873,1.075972,5.379859,0,0Z" transform="matrix(1.6 0 0 1.6 138.404665 37.253272)" fill="#e8ce4b"/><path d="M0,0C2.8125,1.1875,2.8125,1.1875,5,3c.8125,2.6875.8125,2.6875,1,5-1.8125.625-1.8125.625-4,1-.99-.66-1.98-1.32-3-2c0-.99,0-1.98,0-3-.66,0-1.32,0-2,0c0-.66,0-1.32,0-2-4.339709,1.788097-4.339709,1.788097-7.375,5.1875-.309375.897187-.309375.897187-.625,1.8125-.33-1.65-.66-3.3-1-5c4.144055-3.157376,6.743714-4.782851,12-4Z" transform="matrix(1.6 0 0 1.6 63.0001 138.06)" fill="#f6ecbd"/><path d="M0,0C0,1.333333,0,2.666667,0,4c.66.33,1.32.66,2,1-1.5625,2.9375-1.5625,2.9375-4,6-3.75.875-3.75.875-7,1c.476203-4.376531,1.668999-6.06538,5.0625-8.8125.733477-.60457,1.466953-1.209141,2.222656-1.832031C-1.148945,0.908164,-0.583047,0.460859,0,0Z" transform="matrix(1.6 0 0 1.6 51.0001 52.937899)" fill="#b2dcc8"/><path d="M0,0c4.555556.555556,4.555556.555556,6,2c.040638,1.666171.042721,3.333881,0,5-5.75,1.125-5.75,1.125-8,0-.125-2.375-.125-2.375,0-5c.66-.66,1.32-1.32,2-2Z" transform="matrix(1.6 0 0 1.6 149 136.06)" fill="#57b489"/><path d="M0,0c.33,0,.66,0,1,0C1,1.65,1,3.3,1,5C2.65,5,4.3,5,6,5c.33-.99.66-1.98,1-3c0,2.64,0,5.28,0,8-.33-1.32-.66-2.64-1-4C4.35,6,2.7,6,1,6c0,1.65,0,3.3,0,5-.33,0-.66,0-1,0C0,9.35,0,7.7,0,6c-1.65,0-3.3,0-5,0c.33,3.96.66,7.92,1,12-1.65,0-3.3,0-5,0c0-.66,0-1.32,0-2c.66,0,1.32,0,2,0c.33-3.63.66-7.26,1-11c1.98,0,3.96,0,6,0C0,3.35,0,1.7,0,0Z" transform="matrix(1.6 0 0 1.6 155.404665 31.253272)" fill="#fefefd"/><path d="M0,0C1.65,0,3.3,0,5,0c-.492308,6.4-.492308,6.4-3.0625,9.4375C1.298125,9.953125,0.65875,10.46875,0,11C0,7.37,0,3.74,0,0Z" transform="matrix(1.6 0 0 1.6 150.404665 37.253272)" fill="#e6c93b"/><path d="M0,0C3.122701,2.518307,3.945231,3.726155,4.75,7.75C4.8325,8.8225,4.915,9.895,5,11c-1.65,0-3.3,0-5,0C0,7.37,0,3.74,0,0Z" transform="matrix(1.6 0 0 1.6 150.404665 25.253272)" fill="#e6ca3d"/><path d="M0,0c.33,0,.66,0,1,0C1,3.63,1,7.26,1,11c-1.65,0-3.3,0-5,0c.434655-4.520415.787988-7.654154,4-11Z" transform="matrix(1.6 0 0 1.6 148.404665 25.253272)" fill="#e5c838"/><path d="M0,0C1.65,0,3.3,0,5,0C4.568024,4.75174,3.672307,6.920001,0,10c-.66-.33-1.32-.66-2-1c.66-2.97,1.32-5.94,2-9Z" transform="matrix(1.6 0 0 1.6 156.404665 37.253272)" fill="#e6c93c"/><path d="M0,0C3.545811,1.866216,5.671086,3.134067,7,7c0,.99,0,1.98,0,3-1.65,0-3.3,0-5,0C1.34,6.7,0.68,3.4,0,0Z" transform="matrix(1.6 0 0 1.6 154.404665 26.253272)" fill="#e6ca3e"/><path d="M0,0c.8125,1.625.8125,1.625,1,4-3.984615,5.492308-3.984615,5.492308-7,7-1.707027.06996-3.41668.084402-5.125.0625-.910078-.009023-1.820156-.018047-2.757812-.027344C-14.581484,11.023555,-15.280156,11.011953,-16,11c0-.33,0-.66,0-1c5.445-.495,5.445-.495,11-1c.33-1.65.66-3.3,1-5c.99-.33,1.98-.66,3-1c.33-.99.66-1.98,1-3Z" transform="matrix(1.6 0 0 1.6 71.0001 152.06)" fill="#fdfaf0"/><path d="M0,0c1.273513,2.547026.801919,3.428295.0625,6.125-.194648.724453-.389297,1.448906-.589844,2.195313C-0.761309,9.151758,-0.761309,9.151758,-1,10c-1.65,0-3.3,0-5,0c1.208429-4.430905,2.516686-6.981128,6-10Z" transform="matrix(1.6 0 0 1.6 144.404665 26.253272)" fill="#e5c836"/><path d="M0,0C1.32,0,2.64,0,4,0C4,3.3,4,6.6,4,10C2,8.375,2,8.375,0,6c-.25-3.25-.25-3.25,0-6Z" transform="matrix(1.6 0 0 1.6 145.404665 38.253271)" fill="#e3c428"/><path d="M0,0c-.309375.763125-.61875,1.52625-.9375,2.3125C-1.678936,4.187897,-2.362282,6.086847,-3,8c-.66,0-1.32,0-2,0c.33-1.65.66-3.3,1-5-.99.33-1.98.66-3,1-1.225203,3.008474-1.225203,3.008474-2,6-.66-.66-1.32-1.32-2-2c2.864066-5.298521,4.749769-8,11-8Z" transform="matrix(1.6 0 0 1.6 148.404665 24.253272)" fill="#f9f3d6"/><path d="M0,0c2.97.495,2.97.495,6,1c.33,1.32.66,2.64,1,4-1.8125.625-1.8125.625-4,1-.99-.66-1.98-1.32-3-2C0,2.68,0,1.36,0,0Z" transform="matrix(1.6 0 0 1.6 62.0001 141.06)" fill="#e3c429"/><path d="M0,0C0,2.64,0,5.28,0,8c-1.65-.33-3.3-.66-5-1c.465202-2.698171,1.57509-7,5-7Z" transform="matrix(1.6 0 0 1.6 146 139.06)" fill="#41aa79"/><path d="M0,0c-.350496,3.242086-.562212,4.615277-3.0625,6.8125C-3.701875,7.204375,-4.34125,7.59625,-5,8c.33-1.32.66-2.64,1-4-.99.99-1.98,1.98-3,3-.66-.33-1.32-.66-2-1c1.119699-1.005932,2.245941-2.004585,3.375-3c.939727-.835312.939727-.835312,1.898438-1.6875C-2,0,-2,0,0,0Z" transform="matrix(1.6 0 0 1.6 69.0001 37.937899)" fill="#d6ece2"/><path d="M0,0c.66,0,1.32,0,2,0C4.416857,4.2295,5.348331,7.12336,5,12C2.070059,9.070059,0.807477,6.037385,0,2c0-.66,0-1.32,0-2Z" transform="matrix(1.6 0 0 1.6 68.0001 142.06)" fill="#f6edc0"/><path d="M0,0c.66.33,1.32.66,2,1c0,.99,0,1.98,0,3c.99.33,1.98.66,3,1-2.647389,1.460629-3.894483,2-7,2c.875-5.875.875-5.875,2-7Z" transform="matrix(1.6 0 0 1.6 50.0001 143.06)" fill="#fdfcf7"/><path d="M0,0c.99.66,1.98,1.32,3,2C3,3.32,3,4.64,3,6c-1.65,0-3.3,0-5,0c.875-4.875.875-4.875,2-6Z" transform="matrix(1.6 0 0 1.6 158 141.06)" fill="#39a674"/><path d="M0,0c-.66,1.65-1.32,3.3-2,5-.99-.33-1.98-.66-3-1-.6875-2.0625-.6875-2.0625-1-4c2.490928-1.245464,3.410807-.776758,6,0Z" transform="matrix(1.6 0 0 1.6 154 147.06)" fill="#38a673"/><path d="M0,0c.99,0,1.98,0,3,0c.33,1.32.66,2.64,1,4-1.65.33-3.3.66-5,1-.33-.66-.66-1.32-1-2c.66-.99,1.32-1.98,2-3Z" transform="matrix(1.6 0 0 1.6 150 129.06)" fill="#39a673"/><path d="M0,0C1.65,0,3.3,0,5,0c-.33,1.65-.66,3.3-1,5-1.32-.33-2.64-.66-4-1C0,2.68,0,1.36,0,0Z" transform="matrix(1.6 0 0 1.6 156 134.06)" fill="#36a571"/><path d="M0,0C1.65,0,3.3,0,5,0c-.33,1.65-.66,3.3-1,5-1.32-.66-2.64-1.32-4-2c0-.99,0-1.98,0-3Z" transform="matrix(1.6 0 0 1.6 141 134.06)" fill="#37a572"/><path d="M0,0c0,.66,0,1.32,0,2-.99.66-1.98,1.32-3,2-1.192326,2.05004-1.192326,2.05004-2,4-.33-1.65-.66-3.3-1-5c3.75-3,3.75-3,6-3Z" transform="matrix(1.6 0 0 1.6 57.0001 139.06)" fill="#f7f0c9"/></svg>
