<svg version="1.1" id="Layer_1" xmlns="http://www.w3.org/2000/svg" xmlns:xlink="http://www.w3.org/1999/xlink" x="0px" y="0px"
	 width="100%" viewBox="0 0 200 200" enable-background="new 0 0 200 200" xml:space="preserve">
<path fill="#B4F2D5" opacity="1.000000" stroke="none" 
	d="
M201.000000,83.000000 
	C201.000000,122.642174 201.000000,161.784348 201.000000,200.963257 
	C134.399521,200.963257 67.799019,200.963257 1.099259,200.963257 
	C1.099259,134.441315 1.099259,67.882446 1.099259,1.161784 
	C67.666351,1.161784 134.333145,1.161784 201.000000,1.161784 
	C201.000000,28.200712 201.000000,55.350357 201.000000,83.000000 
M57.673256,181.771194 
	C64.863144,179.749634 67.582352,174.503860 67.733589,167.557236 
	C67.856224,161.923843 67.638145,156.281204 67.841202,150.652390 
	C67.913765,148.641052 68.778236,146.658295 69.263100,144.734512 
	C67.105400,144.734512 64.699600,144.734512 63.027153,144.734512 
	C63.677410,146.771088 64.758842,148.715424 64.845169,150.702988 
	C65.089508,156.328232 64.985352,161.972000 64.907257,167.606918 
	C64.827271,173.377579 62.666271,177.915054 56.101139,180.227768 
	C46.516495,180.497589 42.361237,176.634720 42.181839,167.115326 
	C42.078728,161.643951 42.073116,156.166855 42.210480,150.697037 
	C42.256569,148.861603 42.880215,147.040665 43.263351,145.093811 
	C41.477497,145.093811 39.393059,145.093811 37.786140,145.093811 
	C38.156662,147.316040 38.729702,149.354477 38.792191,151.408447 
	C38.938396,156.213882 38.828297,161.026794 38.842419,165.836639 
	C38.879147,178.347870 44.347183,183.153183 57.673256,181.771194 
M127.063545,65.363419 
	C123.869034,67.825859 122.107582,70.961060 123.711029,74.924072 
	C125.483788,79.305550 123.500847,80.207527 119.697311,80.145744 
	C114.436478,80.060280 109.173210,80.124298 103.801529,80.124298 
	C103.801529,85.717155 103.801529,90.607689 103.801529,95.812416 
	C105.721268,95.812416 107.190315,95.785683 108.658127,95.817062 
	C114.902176,95.950539 119.870522,100.970345 120.071739,107.329407 
	C120.274323,113.731979 115.599556,120.148140 109.692856,119.711967 
	C103.218864,119.233902 102.916351,122.387505 103.340034,127.045563 
	C103.576073,129.640610 103.711380,132.244843 103.918518,135.225433 
	C122.431892,135.225433 140.460190,135.225433 158.501007,135.225433 
	C158.501007,116.766197 158.501007,98.708801 158.501007,80.122269 
	C153.021652,80.122269 147.898178,80.056717 142.777298,80.143822 
	C138.949280,80.208931 137.434738,79.329071 138.658218,74.876282 
	C140.725067,67.353989 135.394119,62.791267 127.063545,65.363419 
M100.147774,70.370659 
	C100.147774,66.779503 100.147774,63.188347 100.147774,59.697971 
	C88.207581,58.583889 83.635315,54.862949 83.813545,47.014938 
	C83.989685,39.258667 89.089439,35.403648 99.689667,35.199299 
	C99.689667,30.185772 99.689667,25.173922 99.689667,20.198837 
	C81.312035,20.198837 63.394913,20.198837 45.388016,20.198837 
	C45.388016,38.591450 45.388016,56.634418 45.388016,75.596451 
	C52.446449,75.596451 59.112862,75.596451 66.483788,75.596451 
	C64.347359,81.292831 62.991165,86.469894 68.236038,89.439613 
	C70.498795,90.720810 74.679878,90.740929 76.941872,89.469734 
	C82.237396,86.493774 80.508484,81.240692 79.042747,76.001930 
	C81.045250,75.635063 82.753464,75.108093 84.477631,75.049316 
	C88.472557,74.913109 92.481766,74.862701 96.472481,75.049248 
	C99.315346,75.182152 100.502121,74.125557 100.147774,70.370659 
M70.086151,95.453697 
	C61.354298,93.667007 58.976280,87.544022 59.883034,79.504959 
	C54.375008,79.504959 49.488262,79.504959 44.438511,79.504959 
	C44.438511,97.935905 44.438511,115.985321 44.438511,134.658981 
	C46.521694,134.658981 48.311138,134.658966 50.100582,134.658966 
	C64.249313,134.658981 78.398041,134.660172 92.546768,134.658524 
	C99.653870,134.657700 99.655098,134.655411 99.658585,127.737923 
	C99.660881,123.173592 99.659019,118.609268 99.659019,114.052910 
	C111.872162,114.313423 115.567970,112.512657 115.594322,106.841957 
	C115.622177,100.849251 111.508041,98.858574 99.908737,99.757126 
	C99.908737,93.053581 99.908737,86.374748 99.908737,79.452728 
	C94.120422,79.452728 89.232750,79.452728 84.390350,79.452728 
	C82.708649,92.172188 80.447563,94.825516 70.086151,95.453697 
M160.013245,44.500008 
	C160.013245,36.594421 160.013245,28.688837 160.013245,20.612005 
	C157.776352,20.496881 156.304123,20.356853 154.831711,20.355253 
	C139.858231,20.338980 124.882233,20.496723 109.912788,20.250303 
	C105.582710,20.179024 103.917923,21.306181 104.258469,25.815058 
	C104.637360,30.831753 104.345245,35.899124 104.345245,40.972313 
	C92.492744,40.263981 88.660149,41.968166 88.728127,47.755909 
	C88.751366,49.734234 89.617348,52.907261 90.939995,53.438393 
	C94.807495,54.991459 99.099136,55.488297 104.298698,56.636177 
	C104.298698,62.029972 104.298698,68.741791 104.298698,75.363068 
	C110.134933,75.363068 115.142616,75.363068 120.129837,75.363068 
	C120.016304,65.424088 123.682289,59.831993 131.032623,59.386021 
	C133.786911,59.218910 136.909836,60.391319 139.411270,61.773552 
	C144.699020,64.695435 144.479294,70.172180 144.117233,75.578880 
	C149.628021,75.578880 154.525146,75.578880 160.013260,75.578880 
	C160.013260,65.364304 160.013260,55.432156 160.013245,44.500008 
M119.532463,164.547989 
	C122.245171,164.547989 124.957870,164.547989 127.670578,164.547989 
	C126.948517,163.306824 125.707855,162.857010 124.454758,162.445023 
	C121.967560,161.627319 117.810211,164.615784 117.128410,159.951553 
	C116.519539,155.786209 117.000404,151.461548 117.000404,146.215256 
	C122.228737,146.914398 126.568939,147.494797 130.915253,148.075989 
	C130.851196,147.458771 130.689392,145.899597 130.548569,144.542633 
	C123.491936,144.542633 116.908226,144.542633 109.964844,144.542633 
	C114.183052,148.642532 114.351349,176.759552 110.446648,181.765884 
	C116.361275,181.765884 122.184914,181.977478 127.974388,181.626144 
	C129.540909,181.531082 131.004044,179.732178 132.514618,178.715317 
	C132.245285,178.517090 131.975937,178.318848 131.706604,178.120621 
	C126.999786,178.860428 122.292976,179.600235 116.021492,180.585983 
	C117.043640,174.292480 117.825211,169.480240 119.532463,164.547989 
M75.830528,148.356873 
	C77.941605,147.743073 80.018555,146.935776 82.170929,146.556137 
	C86.520897,145.788879 88.430260,147.331406 88.155548,152.169571 
	C87.741234,159.466354 88.198700,166.808884 87.965820,174.121780 
	C87.884224,176.683899 86.858398,179.215942 86.285179,181.669998 
	C88.551796,181.669998 91.506386,181.669998 93.623787,181.669998 
	C93.016563,179.321243 91.959656,176.942932 91.862862,174.526199 
	C91.610062,168.214218 91.777130,161.885406 91.777214,155.563309 
	C91.777351,145.690445 93.237396,144.633392 103.211143,147.270126 
	C103.638847,147.383209 104.087196,147.418198 104.525932,147.489548 
	C104.805222,147.154083 105.084511,146.818619 105.363800,146.483154 
	C104.494804,145.720703 103.637115,144.310883 102.755074,144.295486 
	C93.508873,144.134033 84.258774,144.195786 74.275764,144.195786 
	C74.752457,146.112671 75.092445,147.479874 75.830528,148.356873 
M161.937378,152.453247 
	C162.224609,151.636780 162.511826,150.820328 162.918213,149.665131 
	C154.996841,149.665131 147.574097,149.665131 139.836334,149.665131 
	C139.836334,151.045395 139.836334,152.409760 139.836334,153.552643 
	C145.396988,150.223236 151.127701,152.197113 157.860611,151.971832 
	C154.150009,157.686523 151.119781,162.385605 148.056030,167.062714 
	C145.038666,171.669022 141.987350,176.253113 138.717270,181.200455 
	C150.678925,182.795364 162.352570,181.984497 164.334930,179.448242 
	C157.734238,179.448242 151.275391,179.448242 144.215591,179.448242 
	C150.119385,170.437943 155.819519,161.738464 161.937378,152.453247 
z"/>
<path fill="#33A470" opacity="1.000000" stroke="none" 
	d="
M127.397949,65.175171 
	C135.394119,62.791267 140.725067,67.353989 138.658218,74.876282 
	C137.434738,79.329071 138.949280,80.208931 142.777298,80.143822 
	C147.898178,80.056717 153.021652,80.122269 158.501007,80.122269 
	C158.501007,98.708801 158.501007,116.766197 158.501007,135.225433 
	C140.460190,135.225433 122.431892,135.225433 103.918518,135.225433 
	C103.711380,132.244843 103.576073,129.640610 103.340034,127.045563 
	C102.916351,122.387505 103.218864,119.233902 109.692856,119.711967 
	C115.599556,120.148140 120.274323,113.731979 120.071739,107.329407 
	C119.870522,100.970345 114.902176,95.950539 108.658127,95.817062 
	C107.190315,95.785683 105.721268,95.812416 103.801529,95.812416 
	C103.801529,90.607689 103.801529,85.717155 103.801529,80.124298 
	C109.173210,80.124298 114.436478,80.060280 119.697311,80.145744 
	C123.500847,80.207527 125.483788,79.305550 123.711029,74.924072 
	C122.107582,70.961060 123.869034,67.825859 127.397949,65.175171 
M138.044205,113.360039 
	C138.044205,113.360039 138.026611,113.061356 137.737579,112.342155 
	C136.479340,112.254936 135.221115,112.167717 134.310150,111.596794 
	C135.056229,110.054977 135.802307,108.513161 136.548386,106.971344 
	C135.878479,106.775169 135.208572,106.578995 134.538666,106.382820 
	C134.040756,108.321815 133.542847,110.260803 132.505249,112.442375 
	C132.311752,112.404236 132.118240,112.366089 131.921722,111.646523 
	C131.334717,111.088158 130.747726,110.529800 129.792603,109.370728 
	C128.692505,108.363045 128.493454,104.721725 126.533569,107.556915 
	C126.220856,106.840363 125.908134,106.123817 125.595413,105.407265 
	C125.361336,105.519623 125.127258,105.631973 124.893181,105.744331 
	C125.266579,106.497673 125.639984,107.251007 125.913994,108.526016 
	C125.665733,108.993492 125.417473,109.460968 124.629250,110.295181 
	C124.714851,111.567474 124.800453,112.839775 125.007095,114.626770 
	C125.297829,114.915085 125.588554,115.203407 125.879272,115.491722 
	C126.054016,115.301659 126.228760,115.111603 126.403511,114.921539 
	C125.972992,114.577042 125.542465,114.232544 125.149132,113.257919 
	C125.446625,112.256653 125.744118,111.255386 126.704803,110.028915 
	C127.762367,110.324150 128.819931,110.619392 130.467468,111.372116 
	C130.777527,111.764229 131.087585,112.156342 131.025024,113.035812 
	C131.025024,114.207680 131.025024,115.379547 131.025024,115.935852 
	C133.324921,115.196724 135.152512,114.609383 137.064301,114.677612 
	C137.704712,114.782974 138.345139,114.888329 139.516785,115.234322 
	C140.149200,115.146103 140.781601,115.057877 141.414017,114.969650 
	C140.637451,114.636864 139.860886,114.304085 138.565430,113.802574 
	C138.389923,113.754776 138.214432,113.706985 138.044205,113.360039 
M133.638077,104.170456 
	C134.078308,104.077797 134.518539,103.985130 135.554230,103.995567 
	C135.755539,103.988312 135.956863,103.981064 136.684372,104.394112 
	C137.642548,104.934586 138.600723,105.475060 140.011856,106.271034 
	C139.938522,104.877548 139.890869,103.972061 140.075897,102.494865 
	C139.496841,101.238899 138.917786,99.982933 138.194717,98.309479 
	C138.194717,98.309479 138.031235,97.897308 137.926346,97.383736 
	C137.450592,97.151962 136.974838,96.920189 136.499084,96.688416 
	C136.622986,97.116417 136.746872,97.544418 137.104141,98.440247 
	C137.356705,98.667641 137.609253,98.895042 137.812698,99.832100 
	C136.540344,100.574615 135.267975,101.317139 133.525650,101.875267 
	C133.359818,101.846870 133.193970,101.818466 133.062042,101.390709 
	C133.062042,101.390709 133.001862,100.994461 132.941238,100.398613 
	C132.654129,99.893387 132.367020,99.388153 131.932495,98.682602 
	C131.932495,98.682602 131.566605,98.726944 131.566605,98.726944 
	C131.566605,98.726944 131.891006,99.076698 131.516266,99.564476 
	C131.028641,100.413132 130.541016,101.261787 130.085236,102.610626 
	C130.124573,102.773224 130.163895,102.935822 130.081482,103.679237 
	C130.775345,104.117783 131.469208,104.556328 132.499237,104.761391 
	C132.721039,104.587723 132.876755,104.367371 133.638077,104.170456 
M143.352020,109.876900 
	C144.585342,107.590088 145.818665,105.303276 147.052002,103.016464 
	C147.545486,103.743988 148.038986,104.471512 148.532486,105.199036 
	C146.139771,106.513611 143.747070,107.828186 141.351486,109.144333 
	C141.100525,108.998039 141.879456,109.452080 143.352020,109.876900 
M132.919205,118.422882 
	C133.653915,119.141144 134.614578,120.586647 135.081116,120.441711 
	C136.497299,120.001755 137.722382,118.946671 139.021896,118.131165 
	C138.756195,117.804680 138.490494,117.478188 138.224792,117.151695 
	C136.651947,117.557953 135.079102,117.964203 132.919205,118.422882 
M144.819763,111.600716 
	C144.724472,112.903191 144.629181,114.205666 144.533905,115.508141 
	C145.167816,115.434349 145.801727,115.360558 146.435638,115.286766 
	C146.064560,113.946327 145.693481,112.605881 144.819763,111.600716 
M123.752487,103.462868 
	C123.941933,103.192078 124.131378,102.921288 124.320831,102.650505 
	C124.039658,102.824142 123.758484,102.997772 123.752487,103.462868 
z"/>
<path fill="#33A470" opacity="1.000000" stroke="none" 
	d="
M100.146713,70.846619 
	C100.502121,74.125557 99.315346,75.182152 96.472481,75.049248 
	C92.481766,74.862701 88.472557,74.913109 84.477631,75.049316 
	C82.753464,75.108093 81.045250,75.635063 79.042747,76.001930 
	C80.508484,81.240692 82.237396,86.493774 76.941872,89.469734 
	C74.679878,90.740929 70.498795,90.720810 68.236038,89.439613 
	C62.991165,86.469894 64.347359,81.292831 66.483788,75.596451 
	C59.112862,75.596451 52.446449,75.596451 45.388016,75.596451 
	C45.388016,56.634418 45.388016,38.591450 45.388016,20.198837 
	C63.394913,20.198837 81.312035,20.198837 99.689667,20.198837 
	C99.689667,25.173922 99.689667,30.185772 99.689667,35.199299 
	C89.089439,35.403648 83.989685,39.258667 83.813545,47.014938 
	C83.635315,54.862949 88.207581,58.583889 100.147774,59.697971 
	C100.147774,63.188347 100.147774,66.779503 100.146713,70.846619 
M56.601028,56.489670 
	C56.282417,57.132839 55.963806,57.776009 55.645199,58.419186 
	C56.080875,58.510303 56.516548,58.601425 56.952225,58.692543 
	C56.973667,57.791622 56.995106,56.890701 57.020279,55.303204 
	C57.373619,54.237530 57.726959,53.171856 58.712120,52.236980 
	C59.077900,53.871964 59.443676,55.506943 59.992508,57.960159 
	C61.205952,55.959492 62.102753,54.480881 63.588001,52.701019 
	C64.389198,51.468884 65.190399,50.236748 66.000809,48.999180 
	C66.000809,48.999180 66.009384,48.990150 66.628258,48.714928 
	C67.715080,47.209484 68.801895,45.704041 70.010742,44.029564 
	C65.790939,42.898830 64.000778,43.924202 59.978226,49.119228 
	C59.281357,50.038239 58.584492,50.957253 57.163231,51.947643 
	C56.184593,52.825321 55.205959,53.702999 54.227322,54.580677 
	C55.142460,55.059135 56.057594,55.537590 56.601028,56.489670 
M77.579521,37.889069 
	C77.801353,37.659321 77.980286,37.399975 78.748970,36.899849 
	C79.732147,35.544910 80.715332,34.189972 81.698509,32.835033 
	C81.285896,32.359634 80.873291,31.884235 80.460678,31.408836 
	C78.237404,32.861427 76.014122,34.314018 73.119118,35.979889 
	C72.694664,37.358864 72.270210,38.737839 71.845749,40.116810 
	C73.636375,39.476494 75.427010,38.836178 77.579521,37.889069 
z"/>
<path fill="#E2C528" opacity="1.000000" stroke="none" 
	d="
M70.460495,95.545319 
	C80.447563,94.825516 82.708649,92.172188 84.390350,79.452728 
	C89.232750,79.452728 94.120422,79.452728 99.908737,79.452728 
	C99.908737,86.374748 99.908737,93.053581 99.908737,99.757126 
	C111.508041,98.858574 115.622177,100.849251 115.594322,106.841957 
	C115.567970,112.512657 111.872162,114.313423 99.659019,114.052910 
	C99.659019,118.609268 99.660881,123.173592 99.658585,127.737923 
	C99.655098,134.655411 99.653870,134.657700 92.546768,134.658524 
	C78.398041,134.660172 64.249313,134.658981 50.100582,134.658966 
	C48.311138,134.658966 46.521694,134.658981 44.438511,134.658981 
	C44.438511,115.985321 44.438511,97.935905 44.438511,79.504959 
	C49.488262,79.504959 54.375008,79.504959 59.883034,79.504959 
	C58.976280,87.544022 61.354298,93.667007 70.460495,95.545319 
M79.082321,106.264702 
	C79.082321,106.264702 79.404335,106.246910 79.404335,106.246910 
	C79.404335,106.246910 79.081116,105.947929 78.960243,105.343063 
	C78.335892,104.677010 77.711540,104.010956 77.087189,103.344902 
	C76.854362,103.615974 76.621529,103.887039 76.388702,104.158112 
	C77.243637,104.796440 78.098579,105.434776 79.082321,106.264702 
M59.318497,105.125687 
	C57.791515,107.879364 54.109104,110.301155 57.976902,114.420456 
	C57.980183,114.777840 57.983467,115.135223 57.510727,116.047272 
	C58.254139,122.985329 64.710976,126.648758 73.604118,124.703186 
	C77.814980,122.641853 81.162888,119.963318 81.111382,114.994095 
	C79.334999,116.009125 77.657372,116.967728 75.907776,117.347954 
	C75.580460,116.888588 75.253143,116.429214 74.860558,115.119324 
	C75.509270,111.537514 75.379738,108.303543 71.084457,106.116806 
	C71.601440,104.446907 72.118423,102.777008 72.659950,101.027817 
	C67.147125,99.166847 63.429615,100.240860 59.318497,105.125687 
M81.105637,110.668839 
	C81.116646,110.276085 81.127655,109.883331 81.138664,109.490570 
	C80.726715,109.643188 80.314774,109.795807 79.902832,109.948425 
	C80.149864,110.237915 80.396889,110.527405 81.105637,110.668839 
z"/>
<path fill="#E2C428" opacity="1.000000" stroke="none" 
	d="
M160.013245,45.000008 
	C160.013260,55.432156 160.013260,65.364304 160.013260,75.578880 
	C154.525146,75.578880 149.628021,75.578880 144.117233,75.578880 
	C144.479294,70.172180 144.699020,64.695435 139.411270,61.773552 
	C136.909836,60.391319 133.786911,59.218910 131.032623,59.386021 
	C123.682289,59.831993 120.016304,65.424088 120.129837,75.363068 
	C115.142616,75.363068 110.134933,75.363068 104.298698,75.363068 
	C104.298698,68.741791 104.298698,62.029972 104.298698,56.636177 
	C99.099136,55.488297 94.807495,54.991459 90.939995,53.438393 
	C89.617348,52.907261 88.751366,49.734234 88.728127,47.755909 
	C88.660149,41.968166 92.492744,40.263981 104.345245,40.972313 
	C104.345245,35.899124 104.637360,30.831753 104.258469,25.815058 
	C103.917923,21.306181 105.582710,20.179024 109.912788,20.250303 
	C124.882233,20.496723 139.858231,20.338980 154.831711,20.355253 
	C156.304123,20.356853 157.776352,20.496881 160.013245,20.612005 
	C160.013245,28.688837 160.013245,36.594421 160.013245,45.000008 
M124.902710,49.858673 
	C125.642303,50.564480 126.381889,51.270290 127.754463,52.311275 
	C131.723862,54.054642 135.563690,54.679523 139.649475,50.992756 
	C141.084900,49.625156 142.520340,48.257557 144.212357,46.212341 
	C144.467148,43.162304 144.721939,40.112263 144.946442,36.329807 
	C143.900574,33.753117 143.301407,30.711296 139.233627,30.238245 
	C134.527344,26.559679 129.746307,27.158609 124.412239,30.409988 
	C122.951942,32.633354 121.491646,34.856720 119.938606,37.927860 
	C119.979828,39.909801 120.021049,41.891739 120.118637,44.464100 
	C121.667068,46.039112 123.215492,47.614124 124.902710,49.858673 
z"/>
<path fill="#46AF7E" opacity="1.000000" stroke="none" 
	d="
M119.069626,164.608002 
	C117.825211,169.480240 117.043640,174.292480 116.021492,180.585983 
	C122.292976,179.600235 126.999786,178.860428 131.706604,178.120621 
	C131.975937,178.318848 132.245285,178.517090 132.514618,178.715317 
	C131.004044,179.732178 129.540909,181.531082 127.974388,181.626144 
	C122.184914,181.977478 116.361275,181.765884 110.446648,181.765884 
	C114.351349,176.759552 114.183052,148.642532 109.964844,144.542633 
	C116.908226,144.542633 123.491936,144.542633 130.548569,144.542633 
	C130.689392,145.899597 130.851196,147.458771 130.915253,148.075989 
	C126.568939,147.494797 122.228737,146.914398 117.000404,146.215256 
	C117.000404,151.461548 116.519539,155.786209 117.128410,159.951553 
	C117.810211,164.615784 121.967560,161.627319 124.454758,162.445023 
	C125.707855,162.857010 126.948517,163.306824 127.670578,164.547989 
	C124.957870,164.547989 122.245171,164.547989 119.069626,164.608002 
z"/>
<path fill="#47B07F" opacity="1.000000" stroke="none" 
	d="
M75.631485,148.601974 
	C75.092445,147.479874 74.752457,146.112671 74.275764,144.195786 
	C84.258774,144.195786 93.508873,144.134033 102.755074,144.295486 
	C103.637115,144.310883 104.494804,145.720703 105.363800,146.483154 
	C105.084511,146.818619 104.805222,147.154083 104.525932,147.489548 
	C104.087196,147.418198 103.638847,147.383209 103.211143,147.270126 
	C93.237396,144.633392 91.777351,145.690445 91.777214,155.563309 
	C91.777130,161.885406 91.610062,168.214218 91.862862,174.526199 
	C91.959656,176.942932 93.016563,179.321243 93.623787,181.669998 
	C91.506386,181.669998 88.551796,181.669998 86.285179,181.669998 
	C86.858398,179.215942 87.884224,176.683899 87.965820,174.121780 
	C88.198700,166.808884 87.741234,159.466354 88.155548,152.169571 
	C88.430260,147.331406 86.520897,145.788879 82.170929,146.556137 
	C80.018555,146.935776 77.941605,147.743073 75.631485,148.601974 
z"/>
<path fill="#44AE7D" opacity="1.000000" stroke="none" 
	d="
M161.728516,152.746124 
	C155.819519,161.738464 150.119385,170.437943 144.215591,179.448242 
	C151.275391,179.448242 157.734238,179.448242 164.334930,179.448242 
	C162.352570,181.984497 150.678925,182.795364 138.717270,181.200455 
	C141.987350,176.253113 145.038666,171.669022 148.056030,167.062714 
	C151.119781,162.385605 154.150009,157.686523 157.860611,151.971832 
	C151.127701,152.197113 145.396988,150.223236 139.836334,153.552643 
	C139.836334,152.409760 139.836334,151.045395 139.836334,149.665131 
	C147.574097,149.665131 154.996841,149.665131 162.918213,149.665131 
	C162.511826,150.820328 162.224609,151.636780 161.728516,152.746124 
z"/>
<path fill="#36A672" opacity="1.000000" stroke="none" 
	d="
M56.965260,181.777817 
	C44.347183,183.153183 38.879147,178.347870 38.842419,165.836639 
	C38.828297,161.026794 38.938396,156.213882 38.792191,151.408447 
	C38.729702,149.354477 38.156662,147.316040 37.786140,145.093811 
	C39.393059,145.093811 41.477497,145.093811 43.263351,145.093811 
	C42.880215,147.040665 42.256569,148.861603 42.210480,150.697037 
	C42.073116,156.166855 42.078728,161.643951 42.181839,167.115326 
	C42.361237,176.634720 46.516495,180.497589 56.538223,180.472763 
	C56.971958,181.071106 56.968609,181.424469 56.965260,181.777817 
z"/>
<path fill="#46AF7E" opacity="1.000000" stroke="none" 
	d="
M57.319260,181.774506 
	C56.968609,181.424469 56.971958,181.071106 56.975899,180.452759 
	C62.666271,177.915054 64.827271,173.377579 64.907257,167.606918 
	C64.985352,161.972000 65.089508,156.328232 64.845169,150.702988 
	C64.758842,148.715424 63.677410,146.771088 63.027153,144.734512 
	C64.699600,144.734512 67.105400,144.734512 69.263100,144.734512 
	C68.778236,146.658295 67.913765,148.641052 67.841202,150.652390 
	C67.638145,156.281204 67.856224,161.923843 67.733589,167.557236 
	C67.582352,174.503860 64.863144,179.749634 57.319260,181.774506 
z"/>
<path fill="#46AC7C" opacity="1.000000" stroke="none" 
	d="
M143.005203,109.891510 
	C141.879456,109.452080 141.100525,108.998039 141.351486,109.144333 
	C143.747070,107.828186 146.139771,106.513611 148.532486,105.199036 
	C148.038986,104.471512 147.545486,103.743988 147.052002,103.016464 
	C145.818665,105.303276 144.585342,107.590088 143.005203,109.891510 
z"/>
<path fill="#D7EDE2" opacity="1.000000" stroke="none" 
	d="
M133.962875,112.080498 
	C135.221115,112.167717 136.479340,112.254936 137.609833,112.726974 
	C137.312286,113.416908 137.142502,113.722031 136.979706,114.019997 
	C136.986694,114.012840 136.980103,114.022041 136.980103,114.022041 
	C135.152512,114.609383 133.324921,115.196724 131.025024,115.935852 
	C131.025024,115.379547 131.025024,114.207680 131.359894,112.779129 
	C131.694763,112.522438 131.924744,112.327942 131.924744,112.327942 
	C132.118240,112.366089 132.311752,112.404236 133.010498,112.337219 
	C133.515732,112.232063 133.962875,112.080498 133.962875,112.080498 
z"/>
<path fill="#3DA876" opacity="1.000000" stroke="none" 
	d="
M133.212738,118.396667 
	C135.079102,117.964203 136.651947,117.557953 138.224792,117.151695 
	C138.490494,117.478188 138.756195,117.804680 139.021896,118.131165 
	C137.722382,118.946671 136.497299,120.001755 135.081116,120.441711 
	C134.614578,120.586647 133.653915,119.141144 133.212738,118.396667 
z"/>
<path fill="#BDE1D0" opacity="1.000000" stroke="none" 
	d="
M138.338730,98.726967 
	C138.917786,99.982933 139.496841,101.238899 139.678314,102.949982 
	C138.239883,103.594666 137.199036,103.784233 136.158188,103.973808 
	C135.956863,103.981064 135.755539,103.988312 135.165894,103.700699 
	C134.516891,102.957108 134.256256,102.508377 133.995605,102.059647 
	C135.267975,101.317139 136.540344,100.574615 137.955658,99.376999 
	C138.098633,98.921890 138.338730,98.726967 138.338730,98.726967 
z"/>
<path fill="#46AC7C" opacity="1.000000" stroke="none" 
	d="
M134.136505,111.838646 
	C133.962875,112.080498 133.515732,112.232063 133.280334,112.215927 
	C133.542847,110.260803 134.040756,108.321815 134.538666,106.382820 
	C135.208572,106.578995 135.878479,106.775169 136.548386,106.971344 
	C135.802307,108.513161 135.056229,110.054977 134.136505,111.838646 
z"/>
<path fill="#46AC7C" opacity="1.000000" stroke="none" 
	d="
M145.071091,111.433075 
	C145.693481,112.605881 146.064560,113.946327 146.435638,115.286766 
	C145.801727,115.360558 145.167816,115.434349 144.533905,115.508141 
	C144.629181,114.205666 144.724472,112.903191 145.071091,111.433075 
z"/>
<path fill="#BDE1D0" opacity="1.000000" stroke="none" 
	d="
M125.912254,108.043159 
	C128.493454,104.721725 128.692505,108.363045 129.902954,109.906021 
	C130.013321,110.441322 129.877502,110.914627 129.877502,110.914627 
	C128.819931,110.619392 127.762367,110.324150 126.166290,110.030029 
	C125.627785,110.031136 125.169212,109.928444 125.169212,109.928444 
	C125.417473,109.460968 125.665733,108.993492 125.933487,108.262085 
	C125.952988,107.998146 125.912254,108.043159 125.912254,108.043159 
z"/>
<path fill="#4AAE7F" opacity="1.000000" stroke="none" 
	d="
M124.899231,110.111816 
	C125.169212,109.928444 125.627785,110.031136 125.834702,110.142624 
	C125.744118,111.255386 125.446625,112.256653 125.074173,113.629097 
	C124.999207,114.000275 124.886055,114.112068 124.886055,114.112068 
	C124.800453,112.839775 124.714851,111.567474 124.899231,110.111816 
z"/>
<path fill="#D7EDE2" opacity="1.000000" stroke="none" 
	d="
M136.421280,104.183960 
	C137.199036,103.784233 138.239883,103.594666 139.561981,103.235832 
	C139.890869,103.972061 139.938522,104.877548 140.011856,106.271034 
	C138.600723,105.475060 137.642548,104.934586 136.421280,104.183960 
z"/>
<path fill="#3DA876" opacity="1.000000" stroke="none" 
	d="
M132.079910,98.882927 
	C132.367020,99.388153 132.654129,99.893387 132.668030,100.790543 
	C131.614334,101.491791 130.833862,101.801117 130.053391,102.110443 
	C130.541016,101.261787 131.028641,100.413132 131.754059,99.275269 
	C131.991867,98.986061 132.079910,98.882927 132.079910,98.882927 
z"/>
<path fill="#BDE1D0" opacity="1.000000" stroke="none" 
	d="
M132.163071,104.994873 
	C131.469208,104.556328 130.775345,104.117783 130.349976,103.496811 
	C131.018448,103.558922 131.418427,103.803452 131.912659,104.281784 
	C132.058960,104.675354 132.111023,104.835114 132.163071,104.994873 
z"/>
<path fill="#46AC7C" opacity="1.000000" stroke="none" 
	d="
M139.084320,113.971306 
	C139.860886,114.304085 140.637451,114.636864 141.414017,114.969650 
	C140.781601,115.057877 140.149200,115.146103 139.312042,114.861916 
	C139.099640,114.316772 139.091980,114.144043 139.084320,113.971306 
z"/>
<path fill="#9ED3BB" opacity="1.000000" stroke="none" 
	d="
M131.818420,104.047974 
	C131.418427,103.803452 131.018448,103.558922 130.410828,103.206406 
	C130.163895,102.935822 130.124573,102.773224 130.069305,102.360535 
	C130.833862,101.801117 131.614334,101.491791 132.698334,101.088463 
	C133.001862,100.994461 133.062042,101.390709 133.019852,101.928970 
	C132.947998,102.691246 132.918335,102.915276 132.661926,103.224213 
	C132.168625,103.504509 131.963043,103.750793 131.818420,104.047974 
z"/>
<path fill="#3DA876" opacity="1.000000" stroke="none" 
	d="
M136.870773,97.972420 
	C136.746872,97.544418 136.622986,97.116417 136.499084,96.688416 
	C136.974838,96.920189 137.450592,97.151962 137.688721,97.660324 
	C137.257675,97.948738 137.064224,97.960579 136.870773,97.972420 
z"/>
<path fill="#4AAE7F" opacity="1.000000" stroke="none" 
	d="
M125.055573,113.944153 
	C125.542465,114.232544 125.972992,114.577042 126.403503,114.921539 
	C126.228760,115.111603 126.054016,115.301659 125.879272,115.491730 
	C125.588554,115.203407 125.297829,114.915085 124.946579,114.369415 
	C124.886055,114.112068 124.999207,114.000275 125.055573,113.944153 
z"/>
<path fill="#35A571" opacity="1.000000" stroke="none" 
	d="
M123.614899,103.317139 
	C123.758484,102.997772 124.039658,102.824142 124.320831,102.650497 
	C124.131378,102.921288 123.941933,103.192078 123.614899,103.317139 
z"/>
<path fill="#D7EDE2" opacity="1.000000" stroke="none" 
	d="
M132.888687,103.139297 
	C132.918335,102.915276 132.947998,102.691246 133.002884,102.128639 
	C133.193970,101.818466 133.359818,101.846870 133.760620,101.967453 
	C134.256256,102.508377 134.516891,102.957108 134.868164,103.649155 
	C134.518539,103.985130 134.078308,104.077797 133.305130,103.893311 
	C132.972183,103.616173 132.888687,103.139297 132.888687,103.139297 
z"/>
<path fill="#4AAE7F" opacity="1.000000" stroke="none" 
	d="
M130.172485,111.143372 
	C129.877502,110.914627 130.013321,110.441322 130.087021,110.206375 
	C130.747726,110.529800 131.334717,111.088158 131.923233,111.987228 
	C131.924744,112.327942 131.694763,112.522438 131.546204,112.535446 
	C131.087585,112.156342 130.777527,111.764229 130.172485,111.143372 
z"/>
<path fill="#9ED3BB" opacity="1.000000" stroke="none" 
	d="
M125.983185,108.001251 
	C125.639984,107.251007 125.266579,106.497673 124.893181,105.744331 
	C125.127258,105.631973 125.361336,105.519623 125.595413,105.407265 
	C125.908134,106.123817 126.220856,106.840363 126.222916,107.800034 
	C125.912254,108.043159 125.952988,107.998146 125.983185,108.001251 
z"/>
<path fill="#D7EDE2" opacity="1.000000" stroke="none" 
	d="
M138.824875,113.886940 
	C139.091980,114.144043 139.099640,114.316772 139.046432,114.741600 
	C138.345139,114.888329 137.704712,114.782974 137.022202,114.349823 
	C136.980103,114.022041 136.986694,114.012840 137.255890,113.955215 
	C137.696381,113.818123 137.867676,113.738655 138.038956,113.659187 
	C138.214432,113.706985 138.389923,113.754776 138.824875,113.886940 
z"/>
<path fill="#46AC7C" opacity="1.000000" stroke="none" 
	d="
M132.661926,103.224213 
	C132.888687,103.139297 132.972183,103.616173 132.969299,103.858246 
	C132.876755,104.367371 132.721039,104.587723 132.331146,104.878128 
	C132.111023,104.835114 132.058960,104.675354 131.912659,104.281784 
	C131.963043,103.750793 132.168625,103.504509 132.661926,103.224213 
z"/>
<path fill="#3DA876" opacity="1.000000" stroke="none" 
	d="
M131.941437,99.031380 
	C131.891006,99.076698 131.566605,98.726944 131.566605,98.726944 
	C131.566605,98.726944 131.932495,98.682602 132.006195,98.782761 
	C132.079910,98.882927 131.991867,98.986061 131.941437,99.031380 
z"/>
<path fill="#BDE1D0" opacity="1.000000" stroke="none" 
	d="
M136.987457,98.206329 
	C137.064224,97.960579 137.257675,97.948738 137.741180,97.917107 
	C138.031235,97.897308 138.194717,98.309479 138.266724,98.518219 
	C138.338730,98.726967 138.098633,98.921890 137.980225,99.022163 
	C137.609253,98.895042 137.356705,98.667641 136.987457,98.206329 
z"/>
<path fill="#46AC7C" opacity="1.000000" stroke="none" 
	d="
M138.041580,113.509613 
	C137.867676,113.738655 137.696381,113.818123 137.248901,113.962372 
	C137.142502,113.722031 137.312286,113.416908 137.754333,113.086571 
	C138.026611,113.061356 138.044205,113.360039 138.041580,113.509613 
z"/>
<path fill="#53B285" opacity="1.000000" stroke="none" 
	d="
M60.542236,48.941952 
	C64.000778,43.924202 65.790939,42.898830 70.010742,44.029564 
	C68.801895,45.704041 67.715080,47.209484 66.292709,48.585144 
	C65.866180,48.001343 65.775185,47.547329 65.684196,47.093315 
	C65.474998,47.175625 65.265793,47.257938 65.056587,47.340248 
	C65.368256,47.895039 65.679924,48.449825 65.991592,49.004616 
	C65.190399,50.236748 64.389198,51.468884 63.177361,52.596645 
	C62.511051,51.994057 62.255386,51.495842 62.221138,50.891144 
	C62.643257,50.320797 62.843956,49.856934 63.044655,49.393070 
	C62.708359,49.648422 62.372063,49.903774 61.743519,50.016617 
	C61.148262,49.563393 60.845249,49.252674 60.542236,48.941952 
z"/>
<path fill="#53B285" opacity="1.000000" stroke="none" 
	d="
M73.790848,35.766609 
	C76.014122,34.314018 78.237404,32.861427 80.460678,31.408836 
	C80.873291,31.884235 81.285896,32.359634 81.698509,32.835033 
	C80.715332,34.189972 79.732147,35.544910 78.374649,36.961830 
	C78.000336,37.023811 77.877258,36.946907 77.658752,36.696651 
	C76.350082,36.348316 75.259926,36.250233 74.073280,36.057484 
	C73.976799,35.962818 73.790848,35.766609 73.790848,35.766609 
z"/>
<path fill="#3DA876" opacity="1.000000" stroke="none" 
	d="
M60.260231,49.030590 
	C60.845249,49.252674 61.148262,49.563393 61.730804,50.225384 
	C62.010338,50.576656 61.999718,50.997627 61.999718,50.997627 
	C62.255386,51.495842 62.511051,51.994057 62.883137,52.747272 
	C62.102753,54.480881 61.205952,55.959492 59.992508,57.960159 
	C59.443676,55.506943 59.077900,53.871964 58.348701,52.113548 
	C57.985287,51.990112 57.887623,51.876263 57.887623,51.876263 
	C58.584492,50.957253 59.281357,50.038239 60.260231,49.030590 
z"/>
<path fill="#53B285" opacity="1.000000" stroke="none" 
	d="
M77.217636,38.195862 
	C75.427010,38.836178 73.636375,39.476494 71.845749,40.116810 
	C72.270210,38.737839 72.694664,37.358864 73.454987,35.873249 
	C73.790848,35.766609 73.976799,35.962818 74.112999,36.360703 
	C75.118683,37.107025 75.988159,37.455467 76.945801,37.903587 
	C77.033966,38.003265 77.217636,38.195862 77.217636,38.195862 
z"/>
<path fill="#3DA876" opacity="1.000000" stroke="none" 
	d="
M58.032791,52.048149 
	C57.726959,53.171856 57.373619,54.237530 57.007874,55.653030 
	C56.995468,56.002853 56.972733,56.016048 56.972733,56.016048 
	C56.057594,55.537590 55.142460,55.059135 54.227325,54.580681 
	C55.205959,53.702999 56.184593,52.825321 57.525429,51.911953 
	C57.887623,51.876263 57.985287,51.990112 58.032791,52.048149 
z"/>
<path fill="#3DA876" opacity="1.000000" stroke="none" 
	d="
M57.006004,55.996315 
	C56.995106,56.890701 56.973667,57.791622 56.952225,58.692543 
	C56.516548,58.601425 56.080875,58.510303 55.645199,58.419182 
	C55.963806,57.776009 56.282417,57.132839 56.786880,56.252861 
	C56.972733,56.016048 56.995468,56.002853 57.006004,55.996315 
z"/>
<path fill="#53B285" opacity="1.000000" stroke="none" 
	d="
M78.058334,37.067421 
	C77.980286,37.399975 77.801353,37.659321 77.398575,38.042465 
	C77.217636,38.195862 77.033966,38.003265 77.095856,37.737686 
	C77.366219,37.254082 77.606064,37.079014 77.877258,36.946907 
	C77.877258,36.946907 78.000336,37.023811 78.058334,37.067421 
z"/>
<path fill="#E4C62E" opacity="1.000000" stroke="none" 
	d="
M57.986748,115.492607 
	C57.983467,115.135223 57.980183,114.777840 58.104736,113.852608 
	C60.080135,111.231720 63.466499,109.830971 61.584717,105.889771 
	C66.887321,101.185448 68.963188,101.521080 69.987473,107.319901 
	C68.634964,108.494926 67.484482,109.401062 66.472496,110.198112 
	C67.285439,112.221573 68.037003,114.092232 68.504715,115.256386 
	C70.886917,115.521072 72.906372,115.745461 74.925827,115.969849 
	C75.253143,116.429214 75.580460,116.888588 75.905823,118.016617 
	C74.157585,123.130775 70.681282,122.478775 67.035492,121.322212 
	C63.944653,119.155769 60.965698,117.324188 57.986748,115.492607 
z"/>
<path fill="#FBF8E5" opacity="1.000000" stroke="none" 
	d="
M57.748737,115.769943 
	C60.965698,117.324188 63.944653,119.155769 67.073471,121.695953 
	C69.121834,123.199516 71.020332,123.994461 72.918831,124.789398 
	C64.710976,126.648758 58.254139,122.985329 57.748737,115.769943 
z"/>
<path fill="#FDFBF2" opacity="1.000000" stroke="none" 
	d="
M74.893188,115.544586 
	C72.906372,115.745461 70.886917,115.521072 68.504715,115.256386 
	C68.037003,114.092232 67.285439,112.221573 66.472496,110.198112 
	C67.484482,109.401062 68.634964,108.494926 70.238029,107.294800 
	C70.854263,106.963219 71.017914,106.925652 71.181557,106.888077 
	C75.379738,108.303543 75.509270,111.537514 74.893188,115.544586 
z"/>
<path fill="#FAF4D6" opacity="1.000000" stroke="none" 
	d="
M73.261475,124.746292 
	C71.020332,123.994461 69.121834,123.199516 67.185364,122.030823 
	C70.681282,122.478775 74.157585,123.130775 75.941811,118.305801 
	C77.657372,116.967728 79.334999,116.009125 81.111382,114.994095 
	C81.162888,119.963318 77.814980,122.641853 73.261475,124.746292 
z"/>
<path fill="#F8F0C8" opacity="1.000000" stroke="none" 
	d="
M71.133011,106.502441 
	C71.017914,106.925652 70.854263,106.963219 70.440063,107.025894 
	C68.963188,101.521080 66.887321,101.185448 61.310829,105.806137 
	C60.500977,105.622688 60.259747,105.340500 60.018513,105.058311 
	C63.429615,100.240860 67.147125,99.166847 72.659950,101.027817 
	C72.118423,102.777008 71.601440,104.446907 71.133011,106.502441 
z"/>
<path fill="#FEFDF7" opacity="1.000000" stroke="none" 
	d="
M59.668503,105.091995 
	C60.259747,105.340500 60.500977,105.622688 61.016090,105.988510 
	C63.466499,109.830971 60.080135,111.231720 58.101219,113.584579 
	C54.109104,110.301155 57.791515,107.879364 59.668503,105.091995 
z"/>
<path fill="#E4C62C" opacity="1.000000" stroke="none" 
	d="
M78.953514,106.073112 
	C78.098579,105.434776 77.243637,104.796440 76.388702,104.158112 
	C76.621529,103.887039 76.854362,103.615974 77.087189,103.344902 
	C77.711540,104.010956 78.335892,104.677010 78.986191,105.674149 
	C79.012138,106.005241 78.953514,106.073112 78.953514,106.073112 
z"/>
<path fill="#E4C62C" opacity="1.000000" stroke="none" 
	d="
M80.874771,110.742867 
	C80.396889,110.527405 80.149864,110.237915 79.902832,109.948425 
	C80.314774,109.795807 80.726715,109.643188 81.138672,109.490570 
	C81.127655,109.883331 81.116646,110.276085 80.874771,110.742867 
z"/>
<path fill="#E4C62C" opacity="1.000000" stroke="none" 
	d="
M79.046631,105.976585 
	C79.081116,105.947929 79.404335,106.246910 79.404335,106.246910 
	C79.404335,106.246910 79.082321,106.264702 79.017914,106.168907 
	C78.953514,106.073112 79.012138,106.005241 79.046631,105.976585 
z"/>
<path fill="#E6C93A" opacity="1.000000" stroke="none" 
	d="
M139.452332,31.053566 
	C143.301407,30.711296 143.900574,33.753117 144.724884,36.674683 
	C144.503311,37.019562 144.028061,37.011211 143.742798,36.847008 
	C141.939224,35.837418 140.420898,34.992023 138.562134,34.143021 
	C136.506210,35.973186 140.265961,41.214264 134.251190,40.639896 
	C135.411377,40.979794 136.571579,41.319695 137.748474,41.664490 
	C137.748474,43.178379 137.748474,44.458744 137.748474,45.739105 
	C139.989029,40.930634 139.989029,40.930634 143.350647,41.974842 
	C143.568024,43.740536 143.761902,45.315250 143.955765,46.889961 
	C142.520340,48.257557 141.084900,49.625156 138.980835,50.891716 
	C136.711853,50.629787 135.111481,50.468895 133.922699,50.349384 
	C133.138641,47.288345 132.343307,44.183319 131.565002,41.104622 
	C131.582001,41.130959 131.515045,41.037590 131.734573,40.768799 
	C131.807739,40.320801 131.661392,40.141602 131.528534,39.987171 
	C131.541992,40.011940 131.494247,40.042953 131.971466,40.175484 
	C132.832184,36.954056 133.215683,33.600098 133.506851,31.053566 
	C135.953186,31.053566 137.702759,31.053566 139.452332,31.053566 
z"/>
<path fill="#FCF9E9" opacity="1.000000" stroke="none" 
	d="
M139.342987,30.645905 
	C137.702759,31.053566 135.953186,31.053566 133.506851,31.053566 
	C133.215683,33.600098 132.832184,36.954056 132.131516,39.743843 
	C131.814331,36.198242 131.814331,33.216812 131.814331,30.235382 
	C131.287140,30.117212 130.759949,29.999043 130.232758,29.880875 
	C129.343735,32.303596 128.561935,34.773895 127.517647,37.127735 
	C127.039589,38.205269 126.044991,39.053638 125.481232,39.638535 
	C125.825645,36.144569 128.487015,32.814526 124.926292,29.988192 
	C129.746307,27.158609 134.527344,26.559679 139.342987,30.645905 
z"/>
<path fill="#E6C93A" opacity="1.000000" stroke="none" 
	d="
M124.669266,30.199089 
	C128.487015,32.814526 125.825645,36.144569 125.507416,39.635262 
	C125.337044,39.999393 125.373917,39.971786 124.986481,39.924599 
	C123.076485,38.944973 121.553909,38.012527 120.031342,37.080082 
	C121.491646,34.856720 122.951942,32.633354 124.669266,30.199089 
z"/>
<path fill="#FCF9E9" opacity="1.000000" stroke="none" 
	d="
M144.084061,46.551151 
	C143.761902,45.315250 143.568024,43.740536 143.350647,41.974842 
	C139.989029,40.930634 139.989029,40.930634 137.748474,45.739105 
	C137.748474,44.458744 137.748474,43.178379 137.748474,41.664490 
	C136.571579,41.319695 135.411377,40.979794 134.251190,40.639896 
	C140.265961,41.214264 136.506210,35.973186 138.581039,34.539635 
	C139.848770,36.548901 140.757141,38.157936 141.665512,39.766968 
	C142.453018,38.848381 143.240540,37.929794 144.028061,37.011208 
	C144.028061,37.011211 144.503311,37.019562 144.740021,37.040894 
	C144.721939,40.112263 144.467148,43.162304 144.084061,46.551151 
z"/>
<path fill="#FCF9E9" opacity="1.000000" stroke="none" 
	d="
M131.548004,41.078289 
	C132.343307,44.183319 133.138641,47.288345 133.922699,50.349384 
	C135.111481,50.468895 136.711853,50.629787 138.609680,50.905025 
	C135.563690,54.679523 131.723862,54.054642 127.371429,51.887718 
	C126.945717,51.293118 126.903038,51.122074 126.987122,50.710804 
	C127.397972,50.250660 127.682076,50.030746 128.233643,49.822243 
	C128.673599,49.787903 128.846115,49.742149 129.301208,49.884285 
	C130.156113,50.508152 130.728439,50.944134 132.153763,52.029919 
	C131.916138,47.733788 131.732071,44.406036 131.548004,41.078289 
z"/>
<path fill="#E7CB3F" opacity="1.000000" stroke="none" 
	d="
M124.763916,49.189140 
	C123.215492,47.614124 121.667068,46.039112 120.307877,44.210609 
	C120.497116,43.957123 120.939499,43.975723 121.225456,44.136406 
	C122.706520,45.834866 123.901634,47.372639 125.015160,48.982033 
	C124.933571,49.053650 124.763916,49.189140 124.763916,49.189140 
z"/>
<path fill="#FCF9E9" opacity="1.000000" stroke="none" 
	d="
M120.939499,43.975723 
	C120.939499,43.975723 120.497116,43.957123 120.279694,43.915401 
	C120.021049,41.891739 119.979828,39.909801 119.984970,37.503971 
	C121.553909,38.012527 123.076485,38.944973 125.371201,40.213928 
	C126.057312,40.858356 125.971260,41.166271 125.458588,41.403191 
	C123.667824,42.213375 122.303658,43.094551 120.939499,43.975723 
z"/>
<path fill="#E7CB3F" opacity="1.000000" stroke="none" 
	d="
M126.860367,50.951035 
	C126.903038,51.122074 126.945717,51.293118 127.054939,51.720127 
	C126.381889,51.270290 125.642303,50.564480 124.833313,49.523907 
	C124.763916,49.189140 124.933571,49.053650 125.223724,49.157036 
	C125.962708,49.823959 126.411537,50.387497 126.860367,50.951035 
z"/>
<path fill="#33A470" opacity="1.000000" stroke="none" 
	d="
M65.996201,49.001896 
	C65.679924,48.449825 65.368256,47.895039 65.056587,47.340248 
	C65.265793,47.257938 65.474998,47.175625 65.684196,47.093315 
	C65.775185,47.547329 65.866180,48.001343 65.983276,48.722755 
	C66.009384,48.990150 66.000809,48.999180 65.996201,49.001896 
z"/>
<path fill="#33A470" opacity="1.000000" stroke="none" 
	d="
M62.221138,50.891144 
	C61.999718,50.997627 62.010338,50.576656 62.023048,50.367889 
	C62.372063,49.903774 62.708359,49.648422 63.044655,49.393070 
	C62.843956,49.856934 62.643257,50.320797 62.221138,50.891144 
z"/>
<path fill="#33A470" opacity="1.000000" stroke="none" 
	d="
M77.658752,36.696651 
	C77.606064,37.079014 77.366219,37.254082 77.007690,37.638008 
	C75.988159,37.455467 75.118683,37.107025 74.209480,36.455368 
	C75.259926,36.250233 76.350082,36.348316 77.658752,36.696651 
z"/>
<path fill="#E5C836" opacity="1.000000" stroke="none" 
	d="
M125.885201,41.474186 
	C125.971260,41.166271 126.057312,40.858356 125.758636,40.261116 
	C125.373917,39.971786 125.337044,39.999393 125.310852,40.002666 
	C126.044991,39.053638 127.039589,38.205269 127.517647,37.127735 
	C128.561935,34.773895 129.343735,32.303596 130.232758,29.880875 
	C130.759949,29.999043 131.287140,30.117212 131.814331,30.235382 
	C131.814331,33.216812 131.814331,36.198242 131.654297,39.611313 
	C131.494247,40.042953 131.541992,40.011940 131.109314,39.945114 
	C129.913147,39.993885 129.149643,40.109482 128.386139,40.225075 
	C128.388763,40.412910 128.391373,40.600742 128.393997,40.788578 
	C129.434341,40.871582 130.474701,40.954586 131.515045,41.037590 
	C131.515045,41.037590 131.582001,41.130959 131.565002,41.104622 
	C131.732071,44.406036 131.916138,47.733788 132.153763,52.029919 
	C130.728439,50.944134 130.156113,50.508152 129.288971,49.548122 
	C128.639984,47.967579 128.285828,46.911079 127.854843,45.494965 
	C127.169228,43.913723 126.560440,42.692104 125.915848,41.484161 
	C125.880051,41.497841 125.885201,41.474186 125.885201,41.474186 
z"/>
<path fill="#E2C428" opacity="1.000000" stroke="none" 
	d="
M143.742798,36.847008 
	C143.240540,37.929794 142.453018,38.848381 141.665512,39.766968 
	C140.757141,38.157936 139.848770,36.548901 138.921494,34.543251 
	C140.420898,34.992023 141.939224,35.837418 143.742798,36.847008 
z"/>
<path fill="#FCF9E9" opacity="1.000000" stroke="none" 
	d="
M131.734573,40.768799 
	C130.474701,40.954586 129.434341,40.871582 128.393997,40.788578 
	C128.391373,40.600742 128.388763,40.412910 128.386139,40.225075 
	C129.149643,40.109482 129.913147,39.993885 131.095856,39.920349 
	C131.661392,40.141602 131.807739,40.320801 131.734573,40.768799 
z"/>
<path fill="#E2C428" opacity="1.000000" stroke="none" 
	d="
M125.458588,41.403191 
	C125.885201,41.474186 125.880051,41.497841 125.900009,41.921337 
	C125.973999,43.510277 126.028038,44.675720 126.098175,46.165607 
	C126.731575,47.596977 127.348877,48.703903 127.966179,49.810829 
	C127.682076,50.030746 127.397972,50.250660 126.987122,50.710804 
	C126.411537,50.387497 125.962708,49.823959 125.305313,49.085419 
	C123.901634,47.372639 122.706520,45.834866 121.225456,44.136410 
	C122.303658,43.094551 123.667824,42.213375 125.458588,41.403191 
z"/>
<path fill="#E7CB3F" opacity="1.000000" stroke="none" 
	d="
M128.233643,49.822243 
	C127.348877,48.703903 126.731575,47.596977 126.403015,46.246986 
	C127.105057,45.954144 127.518372,45.904362 127.931671,45.854580 
	C128.285828,46.911079 128.639984,47.967579 129.006378,49.360237 
	C128.846115,49.742149 128.673599,49.787903 128.233643,49.822243 
z"/>
<path fill="#FCF9E9" opacity="1.000000" stroke="none" 
	d="
M127.854851,45.494965 
	C127.518372,45.904362 127.105057,45.954144 126.386917,45.922543 
	C126.028038,44.675720 125.973999,43.510277 125.935806,41.907658 
	C126.560440,42.692104 127.169228,43.913723 127.854851,45.494965 
z"/>
</svg>